#!OML:ASF H:\Dans Jumps\Project 1\Capture day 1\Session 1\subject.ASF
:FULLY-SPECIFIED
:DEGREES
196
root 0.259507 21.0938 -7.46806 6.6925 2.32607 -2.17153
lowerback 10.635 -0.472393 -1.59936
upperback 6.46024 -0.744317 2.44949
thorax 0.824851 -0.461246 3.51393
lowerneck -9.15665 0.125229 -1.02121
upperneck 26.7998 0.550151 -0.654435
head 10.0058 0.0798575 0.00712368
rclavicle 7.25564e-015 -3.77691e-015
rhumerus -10.7716 -4.9915 -87.396
rradius 26.8432
rwrist 28.3368
rhand -23.0982 -25.4984
rfingers 7.12502
rthumb 3.34829 -55.4518
lclavicle 7.25564e-015 -3.77691e-015
lhumerus -5.07669 -16.1834 93.3168
lradius 30.4964
lwrist 22.9111
lhand -28.7928 -11.005
lfingers 7.12502
lthumb -2.15162 18.9639
rfemur -34.2432 -5.79967 21.3889
rtibia 31.2603
rfoot 19.4259 -5.63092
rtoes 17.8941
lfemur -33.9236 7.83169 -18.1174
ltibia 30.651
lfoot 18.5237 -3.17747
ltoes 2.32407
197
root 0.254329 20.9674 -7.32508 6.45607 2.29786 -2.22831
lowerback 10.3653 -0.461589 -1.62355
upperback 6.5033 -0.731848 2.43161
thorax 1.01563 -0.458604 3.50349
lowerneck -9.05714 0.122598 -0.992556
upperneck 27.0402 0.531826 -0.617096
head 10.0738 0.0770302 0.0130631
rclavicle 4.17448e-015 -2.40529e-014
rhumerus -11.269 -4.93061 -87.2333
rradius 26.7086
rwrist 28.358
rhand -23.1489 -25.484
rfingers 7.12502
rthumb 3.29933 -55.4382
lclavicle 4.17448e-015 -2.40529e-014
lhumerus -5.52815 -16.3378 93.3326
lradius 30.2601
lwrist 22.893
lhand -28.7928 -10.9963
lfingers 7.12502
lthumb -2.15157 18.9726
rfemur -33.9307 -6.0015 21.4405
rtibia 30.308
rfoot 19.1967 -5.62884
rtoes 17.3538
lfemur -33.698 7.68699 -17.8474
ltibia 29.4115
lfoot 18.2034 -3.33631
ltoes 0.760841
198
root 0.248737 20.8282 -7.1782 6.2096 2.28205 -2.28154
lowerback 10.0421 -0.458708 -1.6531
upperback 6.5365 -0.729689 2.40985
thorax 1.22623 -0.461371 3.49244
lowerneck -8.94416 0.120533 -0.959275
upperneck 27.3068 0.513737 -0.581453
head 10.1491 0.0745206 0.0176394
rclavicle -6.65929e-015 1.39149e-015
rhumerus -11.7615 -4.89852 -87.0792
rradius 26.5221
rwrist 28.4267
rhand -23.1996 -25.4929
rfingers 7.12502
rthumb 3.25036 -55.4479
lclavicle -6.65929e-015 1.39149e-015
lhumerus -5.97598 -16.4353 93.3398
lradius 29.9608
lwrist 22.7883
lhand -28.7383 -10.9381
lfingers 7.12502
lthumb -2.09892 19.0313
rfemur -33.5674 -6.16978 21.4639
rtibia 29.4807
rfoot 18.866 -5.6521
rtoes 16.5791
lfemur -33.4239 7.48708 -17.5502
ltibia 28.2057
lfoot 17.8511 -3.36441
ltoes -0.918025
199
root 0.242891 20.6763 -7.02743 5.94474 2.266 -2.32968
lowerback 9.67554 -0.460049 -1.68708
upperback 6.56053 -0.73282 2.37923
thorax 1.4515 -0.466864 3.47468
lowerneck -8.8327 0.119221 -0.90813
upperneck 27.6002 0.4959 -0.555509
head 10.235 0.072765 0.0157515
rclavicle -7.95139e-016 1.35174e-014
rhumerus -12.249 -4.91924 -86.9388
rradius 26.2906
rwrist 28.541
rhand -23.2528 -25.5077
rfingers 7.12502
rthumb 3.19893 -55.4635
lclavicle -7.95139e-016 1.35174e-014
lhumerus -6.41637 -16.4708 93.3278
lradius 29.615
lwrist 22.6404
lhand -28.58 -10.7505
lfingers 7.12502
lthumb -1.9461 19.2204
rfemur -33.1487 -6.2943 21.4561
rtibia 28.7934
rfoot 18.4923 -5.67912
rtoes 15.6298
lfemur -33.1015 7.25218 -17.2362
ltibia 27.0698
lfoot 17.5041 -3.25999
ltoes -2.64883
200
root 0.237035 20.5117 -6.87278 5.65602 2.25224 -2.38146
lowerback 9.2714 -0.46592 -1.70854
upperback 6.57317 -0.740294 2.33928
thorax 1.6857 -0.473933 3.4401
lowerneck -8.71448 0.118208 -0.834119
upperneck 27.909 0.477267 -0.541867
head 10.3258 0.0716626 0.00544961
rclavicle 9.64106e-015 -1.35174e-014
rhumerus -12.7319 -5.01717 -86.8112
rradius 26.017
rwrist 28.7129
rhand -23.3246 -25.545
rfingers 7.12502
rthumb 3.12961 -55.5018
lclavicle 9.64106e-015 -1.35174e-014
lhumerus -6.86781 -16.443 93.3009
lradius 29.2437
lwrist 22.4926
lhand -28.3487 -10.496
lfingers 7.12502
lthumb -1.72267 19.4768
rfemur -32.6736 -6.38707 21.4331
rtibia 28.2588
rfoot 18.1402 -5.6705
rtoes 14.616
lfemur -32.7407 6.99068 -16.9043
ltibia 26.0483
lfoot 17.2344 -3.0334
ltoes -4.40239
201
root 0.231343 20.3342 -6.71438 5.33896 2.23927 -2.4371
lowerback 8.83141 -0.476713 -1.71565
upperback 6.57308 -0.752615 2.29225
thorax 1.92665 -0.48271 3.39006
lowerneck -8.58707 0.120959 -0.739525
upperneck 28.2322 0.464087 -0.543544
head 10.4207 0.0735737 -0.0133018
rclavicle -2.78299e-015 -1.5704e-014
rhumerus -13.2142 -5.18042 -86.6897
rradius 25.7147
rwrist 28.9255
rhand -23.4247 -25.588
rfingers 7.12502
rthumb 3.03295 -55.5462
lclavicle -2.78299e-015 -1.5704e-014
lhumerus -7.33438 -16.3502 93.2624
lradius 28.8582
lwrist 22.3741
lhand -28.0539 -10.1995
lfingers 7.12502
lthumb -1.43795 19.7754
rfemur -32.1432 -6.46379 21.4049
rtibia 27.8885
rfoot 17.8698 -5.57461
rtoes 13.6778
lfemur -32.3491 6.71878 -16.5651
ltibia 25.1881
lfoot 17.1135 -2.70645
ltoes -6.07643
202
root 0.226007 20.1435 -6.55233 4.98883 2.22118 -2.5083
lowerback 8.3634 -0.490637 -1.6951
upperback 6.55859 -0.76685 2.24148
thorax 2.16803 -0.491175 3.32039
lowerneck -8.44558 0.127802 -0.636001
upperneck 28.5646 0.456097 -0.549413
head 10.5169 0.0784989 -0.0346073
rclavicle 1.28216e-014 -7.15625e-015
rhumerus -13.6913 -5.40426 -86.5714
rradius 25.3876
rwrist 29.1858
rhand -23.5469 -25.6575
rfingers 7.12502
rthumb 2.91498 -55.6173
lclavicle 1.28216e-014 -7.15625e-015
lhumerus -7.81853 -16.1689 93.215
lradius 28.4709
lwrist 22.2608
lhand -27.7426 -9.95974
lfingers 7.12502
lthumb -1.13732 20.017
rfemur -31.5607 -6.54012 21.3952
rtibia 27.6976
rfoot 17.6904 -5.33124
rtoes 12.8436
lfemur -31.9335 6.45813 -16.2175
ltibia 24.542
lfoot 17.1726 -2.31757
ltoes -7.55312
203
root 0.221361 19.9393 -6.38615 4.59778 2.18041 -2.59813
lowerback 7.86158 -0.502664 -1.64211
upperback 6.53479 -0.776556 2.18795
thorax 2.41792 -0.496035 3.22896
lowerneck -8.28939 0.137752 -0.534317
upperneck 28.9003 0.45178 -0.551349
head 10.6119 0.0855766 -0.0538742
rclavicle 4.02539e-015 -1.43125e-014
rhumerus -14.1576 -5.67497 -86.4499
rradius 25.0364
rwrist 29.4948
rhand -23.6802 -25.738
rfingers 7.12502
rthumb 2.78624 -55.6995
lclavicle 4.02539e-015 -1.43125e-014
lhumerus -8.31231 -15.9163 93.157
lradius 28.0769
lwrist 22.1441
lhand -27.459 -9.78293
lfingers 7.12502
lthumb -0.863356 20.1951
rfemur -30.9242 -6.61735 21.413
rtibia 27.7011
rfoot 17.5996 -4.90311
rtoes 12.0954
lfemur -31.4871 6.23648 -15.868
ltibia 24.1606
lfoot 17.3948 -1.91133
ltoes -8.72515
204
root 0.217265 19.7209 -6.21632 4.16417 2.11564 -2.70589
lowerback 7.33381 -0.509036 -1.55932
upperback 6.49894 -0.77745 2.13367
thorax 2.6691 -0.495049 3.11939
lowerneck -8.12544 0.151827 -0.431127
upperneck 29.2493 0.451679 -0.547693
head 10.7112 0.0955664 -0.0710064
rclavicle 8.07563e-015 -4.12478e-015
rhumerus -14.6084 -5.97783 -86.3198
rradius 24.6618
rwrist 29.8419
rhand -23.8074 -25.8385
rfingers 7.12502
rthumb 2.66339 -55.8017
lclavicle 8.07563e-015 -4.12478e-015
lhumerus -8.80683 -15.5955 93.0885
lradius 27.6755
lwrist 21.978
lhand -27.236 -9.6801
lfingers 7.12502
lthumb -0.648037 20.2987
rfemur -30.238 -6.68039 21.4539
rtibia 27.9136
rfoot 17.5594 -4.30116
rtoes 23.8521
lfemur -31.0147 6.06191 -15.5233
ltibia 24.0903
lfoot 17.73 -1.55391
ltoes -9.5542
205
root 0.213865 19.4881 -6.04263 3.67459 2.01067 -2.83014
lowerback 6.79129 -0.50314 -1.44589
upperback 6.45615 -0.761315 2.07584
thorax 2.9203 -0.483971 2.98837
lowerneck -7.98135 0.168036 -0.328313
upperneck 29.6277 0.450496 -0.527516
head 10.8263 0.10702 -0.0823011
rclavicle 1.4474e-014 3.97569e-015
rhumerus -15.0297 -6.31895 -86.1805
rradius 24.252
rwrist 30.2399
rhand -23.9025 -25.9327
rfingers 7.12502
rthumb 2.57155 -55.8969
lclavicle 1.4474e-014 3.97569e-015
lhumerus -9.29616 -15.2222 93.0041
lradius 27.2639
lwrist 21.7354
lhand -27.1089 -9.64985
lfingers 7.12502
lthumb -0.525279 20.3293
rfemur -29.4916 -6.69276 21.5058
rtibia 28.3471
rfoot 17.5258 -3.56261
rtoes 21.849
lfemur -30.4967 5.94886 -15.1859
ltibia 24.3613
lfoot 18.1044 -1.3424
ltoes -10.0938
206
root 0.210725 19.2402 -5.86573 3.1266 1.8775 -2.96281
lowerback 6.24378 -0.49016 -1.31643
upperback 6.40572 -0.736138 2.01763
thorax 3.16645 -0.467296 2.84815
lowerneck -7.86754 0.189064 -0.228937
upperneck 30.0392 0.452658 -0.491604
head 10.961 0.121539 -0.0869236
rclavicle 5.28022e-015 1.12313e-014
rhumerus -15.4165 -6.67857 -86.0282
rradius 23.8094
rwrist 30.6822
rhand -23.9609 -26.0113
rfingers 7.12502
rthumb 2.51515 -55.9762
lclavicle 5.28022e-015 1.12313e-014
lhumerus -9.77178 -14.8163 92.9018
lradius 26.8292
lwrist 21.4266
lhand -27.1053 -9.67171
lfingers 7.12502
lthumb -0.521819 20.3074
rfemur -28.6961 -6.61978 21.5477
rtibia 29.0198
rfoot 17.4509 -2.76233
rtoes 19.4775
lfemur -29.941 5.8739 -14.8579
ltibia 24.9997
lfoot 18.4506 -1.3961
ltoes -10.4579
